<svg xmlns="http://www.w3.org/2000/svg" width="55.034" height="55.034" viewBox="0 0 55.034 55.034">
  <g id="display" transform="translate(-1 -1)">
    <path id="Path_45" data-name="Path 45" d="M53.371,38.763H42.465A19.489,19.489,0,0,0,38.63,36.89l-.61,1.668c4.61,1.684,7.362,4.415,7.362,7.306,0,4.811-7.723,8.877-16.865,8.877s-16.865-4.065-16.865-8.877c0-2.863,2.71-5.578,7.249-7.265l-.618-1.664a19.339,19.339,0,0,0-3.713,1.828H3.663A2.666,2.666,0,0,0,1,41.426V57.4a2.666,2.666,0,0,0,2.663,2.663H53.371A2.666,2.666,0,0,0,56.034,57.4V41.426A2.666,2.666,0,0,0,53.371,38.763Zm-6.214,7.1A7.556,7.556,0,0,0,44.7,40.538h8.674a.889.889,0,0,1,.888.888V54.741H38.951C43.933,52.848,47.158,49.612,47.158,45.864ZM3.663,40.538h8.678a7.558,7.558,0,0,0-2.464,5.326c0,3.748,3.225,6.984,8.207,8.877H2.775V41.426A.889.889,0,0,1,3.663,40.538ZM53.371,58.291H3.663a.889.889,0,0,1-.888-.888v-.888H54.259V57.4A.889.889,0,0,1,53.371,58.291Z" transform="translate(0 -4.032)"/>
    <path id="Path_46" data-name="Path 46" d="M15,46.258c0,3.359,6.2,7.1,15.09,7.1s15.09-3.742,15.09-7.1c0-2.2-2.674-4.5-6.812-5.862l-.557,1.686c3.633,1.2,5.593,3.047,5.593,4.176,0,1.877-5.055,5.326-13.315,5.326s-13.315-3.449-13.315-5.326c0-1.123,1.946-2.963,5.55-4.161l-.56-1.684C17.656,41.778,15,44.074,15,46.258Z" transform="translate(-1.573 -4.426)"/>
    <path id="Path_47" data-name="Path 47" d="M0,0H1.775V15.5H0Z" transform="translate(18.829 27.978) rotate(-23.643)"/>
    <path id="Path_48" data-name="Path 48" d="M0,0H15.5V1.775H0Z" transform="translate(30.366 41.486) rotate(-66.357)"/>
    <path id="Path_49" data-name="Path 49" d="M31,31h1.775V45.2H31Z" transform="translate(-3.37 -3.37)"/>
    <path id="Path_50" data-name="Path 50" d="M30.427,25.854A12.427,12.427,0,1,0,18,13.427,12.441,12.441,0,0,0,30.427,25.854ZM41.079,13.427a10.639,10.639,0,0,1-.161,1.775H34.865a.888.888,0,1,1,0-1.775,2.663,2.663,0,1,0,0-5.326H32.2a.888.888,0,0,1,0-1.775h6.142A10.6,10.6,0,0,1,41.079,13.427ZM30.427,2.775A10.588,10.588,0,0,1,36.3,4.551H32.2a2.663,2.663,0,0,0,0,5.326h2.663a.888.888,0,0,1,0,1.775,2.663,2.663,0,1,0,0,5.326h5.592A10.627,10.627,0,0,1,24.552,22.3h4.1a2.663,2.663,0,1,0,0-5.326H25.1a.888.888,0,0,1,0-1.775h.888a2.663,2.663,0,0,0,0-5.326H20.4A10.661,10.661,0,0,1,30.427,2.775ZM19.936,11.652h6.053a.888.888,0,0,1,0,1.775H25.1a2.663,2.663,0,0,0,0,5.326h3.551a.888.888,0,1,1,0,1.775H22.51a10.454,10.454,0,0,1-2.574-8.877Z" transform="translate(-1.91)"/>
    <path id="Path_51" data-name="Path 51" d="M57,53h1.775v1.775H57Z" transform="translate(-6.291 -5.842)"/>
    <path id="Path_52" data-name="Path 52" d="M53,53h1.775v1.775H53Z" transform="translate(-5.842 -5.842)"/>
    <path id="Path_53" data-name="Path 53" d="M9,53h1.775v1.775H9Z" transform="translate(-0.899 -5.842)"/>
    <path id="Path_54" data-name="Path 54" d="M5,53H6.775v1.775H5Z" transform="translate(-0.449 -5.842)"/>
    <path id="Path_55" data-name="Path 55" d="M46.138,24.258l1.475.988a16.847,16.847,0,0,0,.967-1.637L47,22.794A15.151,15.151,0,0,1,46.138,24.258Z" transform="translate(-5.071 -2.449)"/>
    <path id="Path_56" data-name="Path 56" d="M45.663,6.326a2.623,2.623,0,0,0,.808-.138,15.095,15.095,0,0,1,.83,12.718l1.654.645A16.9,16.9,0,0,0,47.9,5.095a2.639,2.639,0,0,0,.425-1.432,2.663,2.663,0,1,0-2.663,2.663Zm0-3.551a.888.888,0,1,1-.888.888A.889.889,0,0,1,45.663,2.775Z" transform="translate(-4.719)"/>
    <path id="Path_57" data-name="Path 57" d="M17.553,5.432l-1.475-.989a16.847,16.847,0,0,0-.967,1.637l1.577.815A15.244,15.244,0,0,1,17.553,5.432Z" transform="translate(-1.585 -0.387)"/>
    <path id="Path_58" data-name="Path 58" d="M14.775,23.989a2.663,2.663,0,1,0,2.663-2.663,2.623,2.623,0,0,0-.808.138A15.095,15.095,0,0,1,15.8,8.746L14.147,8.1A16.9,16.9,0,0,0,15.2,22.557a2.639,2.639,0,0,0-.425,1.432Zm3.551,0a.888.888,0,1,1-.888-.888A.889.889,0,0,1,18.326,23.989Z" transform="translate(-1.348 -0.798)"/>
  </g>
</svg>
