<svg xmlns="http://www.w3.org/2000/svg" width="52.783" height="44" viewBox="0 0 52.783 44">
  <g id="entertainment" transform="translate(-1.986 -5)">
    <g id="Group_3" data-name="Group 3" transform="translate(1.986 5)">
      <path id="Path_17" data-name="Path 17" d="M13.277,46.554A5.277,5.277,0,1,0,8,41.277a5.277,5.277,0,0,0,5.277,5.277Zm0-8.8a3.518,3.518,0,1,1-3.518,3.518,3.518,3.518,0,0,1,3.518-3.518Z" transform="translate(-2.71 -8.735)"/>
      <path id="Path_18" data-name="Path 18" d="M21.683,33.144H45.094a.88.88,0,1,0,0-1.759H21.143a8.627,8.627,0,0,0,.2-1.759,8.846,8.846,0,0,0-5.709-8.23l-.409-7.777a2.639,2.639,0,0,0,1.558-1.583h1.921a.88.88,0,1,0,0-1.759H16.95V8.518h1.759a.88.88,0,1,0,0-1.759H16.788A2.639,2.639,0,0,0,14.311,5H10.793A2.639,2.639,0,0,0,8.317,6.759H6.4a.88.88,0,0,0,0,1.759H8.155v1.759H6.4a.88.88,0,1,0,0,1.759H8.317a2.639,2.639,0,0,0,1.558,1.583L9.034,29.58a.88.88,0,0,0,.88.926h5.277a.88.88,0,0,0,.88-.926l-.327-6.208a6.99,6.99,0,0,1,3.439,8.595.88.88,0,0,0,.151.853,8.8,8.8,0,1,1-13.56,0,.879.879,0,0,0,.151-.853,6.985,6.985,0,0,1,1.935-7.572.879.879,0,1,0-1.173-1.31,8.738,8.738,0,0,0-2.573,9,10.56,10.56,0,1,0,17.569,1.062ZM11.442,17.313h2.22l.139,2.639H11.3Zm.093-1.759.092-1.759h1.847l.092,1.759Zm-.325,6.157h2.682l.139,2.639h-2.96ZM10.793,6.759h3.518a.88.88,0,0,1,.88.88v3.518a.88.88,0,0,1-.88.88H10.793a.88.88,0,0,1-.88-.88V7.639A.88.88,0,0,1,10.793,6.759Zm.047,21.988.139-2.639h3.145l.139,2.639Z" transform="translate(-1.986 -5)"/>
      <path id="Path_19" data-name="Path 19" d="M48.88,28.759a1.759,1.759,0,0,1,1.759,1.759.88.88,0,1,0,1.759,0A3.518,3.518,0,0,0,48.88,27a.88.88,0,1,0,0,1.759Z" transform="translate(-7.53 -7.651)"/>
      <path id="Path_20" data-name="Path 20" d="M48.88,24.759a5.282,5.282,0,0,1,5.277,5.277.88.88,0,1,0,1.759,0A7.044,7.044,0,0,0,48.88,23a.88.88,0,1,0,0,1.759Z" transform="translate(-7.53 -7.169)"/>
      <path id="Path_21" data-name="Path 21" d="M48.88,20.759a8.8,8.8,0,0,1,8.8,8.8.88.88,0,0,0,1.759,0A10.566,10.566,0,0,0,48.88,19a.88.88,0,1,0,0,1.759Z" transform="translate(-7.53 -6.687)"/>
      <path id="Path_22" data-name="Path 22" d="M29.88,40a.88.88,0,0,0-.88.88v7.036a.88.88,0,0,0,.88.88H33.4a.88.88,0,1,0,0-1.759H30.759V40.88A.88.88,0,0,0,29.88,40Z" transform="translate(-5.241 -9.217)"/>
      <path id="Path_23" data-name="Path 23" d="M37,40.88v7.036a.88.88,0,1,0,1.759,0V40.88a.88.88,0,1,0-1.759,0Z" transform="translate(-6.205 -9.217)"/>
      <path id="Path_24" data-name="Path 24" d="M46.332,40.571l-1.814,4.84L42.7,40.574a.88.88,0,1,0-1.648.616l2.639,7.036a.88.88,0,0,0,1.648,0l2.639-7.036a.88.88,0,0,0-1.648-.616Z" transform="translate(-6.687 -9.217)"/>
      <path id="Path_25" data-name="Path 25" d="M55.4,41.759A.88.88,0,0,0,55.4,40H51.88a.88.88,0,0,0-.88.88v7.036a.88.88,0,0,0,.88.88H55.4a.88.88,0,0,0,0-1.759H52.759V45.277H55.4a.88.88,0,0,0,0-1.759H52.759V41.759Z" transform="translate(-7.892 -9.217)"/>
      <path id="Path_26" data-name="Path 26" d="M56.421,35H51.144a.88.88,0,1,0,0,1.759h4.4V50.831H23.88a.88.88,0,0,0,0,1.759H56.421a.88.88,0,0,0,.88-.88V35.88A.88.88,0,0,0,56.421,35Z" transform="translate(-4.518 -8.615)"/>
      <path id="Path_27" data-name="Path 27" d="M25.319,16.818a2.639,2.639,0,0,0,3.606-.967L30.684,12.8l2.287,1.319a2.639,2.639,0,0,0,3.606-.967l.88-1.523a.88.88,0,0,0-.322-1.2l-3.808-2.2a1.759,1.759,0,0,0-2.408.646l-2.28,3.949a2.579,2.579,0,0,0-.681-.58,2.64,2.64,0,1,0-2.639,4.573Zm10.169-5.3-.44.762a.88.88,0,0,1-1.2.322L31.56,11.282l.883-1.523Zm-9.611,2.576a.879.879,0,1,1,.322,1.2.88.88,0,0,1-.322-1.2Z" transform="translate(-4.638 -5.361)"/>
      <path id="Path_28" data-name="Path 28" d="M30.518,20.88v5.439a2.609,2.609,0,0,0-.88-.162A2.639,2.639,0,1,0,32.277,28.8V25.277h5.277v1.041a2.609,2.609,0,0,0-.88-.162A2.639,2.639,0,1,0,39.313,28.8V20.88a.88.88,0,0,0-.88-.88H31.4A.88.88,0,0,0,30.518,20.88Zm-.88,8.8a.88.88,0,1,1,.88-.88A.88.88,0,0,1,29.639,29.675Zm7.036,0a.88.88,0,1,1,.88-.88A.88.88,0,0,1,36.675,29.675Zm-4.4-7.916h5.277v1.759H32.277Z" transform="translate(-5 -6.807)"/>
    </g>
  </g>
</svg>
