<svg xmlns="http://www.w3.org/2000/svg" width="40.915" height="40.915" viewBox="0 0 40.915 40.915">
  <g id="fabric" transform="translate(0 0)">
    <path id="Path_35" data-name="Path 35" d="M39.259,127.259v-1.32A5.946,5.946,0,0,1,33.32,120H32A7.268,7.268,0,0,0,39.259,127.259Zm0,0" transform="translate(-29.36 -110.101)"/>
    <path id="Path_36" data-name="Path 36" d="M68.619,73.239A4.619,4.619,0,1,0,64,68.619,4.626,4.626,0,0,0,68.619,73.239Zm0-7.919a3.3,3.3,0,1,1-3.3,3.3A3.3,3.3,0,0,1,68.619,65.32Zm0,0" transform="translate(-58.721 -58.72)"/>
    <path id="Path_37" data-name="Path 37" d="M97.98,99.96A1.98,1.98,0,1,0,96,97.98,1.982,1.982,0,0,0,97.98,99.96Zm0-2.64a.66.66,0,1,1-.66.66A.66.66,0,0,1,97.98,97.32Zm0,0" transform="translate(-88.081 -88.081)"/>
    <path id="Path_38" data-name="Path 38" d="M40.915,31.485v-4.9l-1.786-.623a10.542,10.542,0,0,0-.784-1.9l.822-1.7-.637-.637a15.115,15.115,0,0,0-1.146-1.269c-.456-.461-.982-.962-1.339-1.274l-4.391-3.84.377-1.13,1.528.764L36.1,12.443l-.764-1.528,1.621-.54V6.784l-1.621-.54L36.1,4.717,33.56,2.177l-1.528.764-.54-1.621H27.9l-.54,1.621-1.528-.764L23.294,4.716l.764,1.528-1.621.54v.5l-5.432-4.75A10.249,10.249,0,0,0,10.254,0V.018C10.135.014,10.019,0,9.9,0A9.91,9.91,0,0,0,0,9.9c0,.12.014.236.018.355H0a10.247,10.247,0,0,0,2.537,6.751L7.29,22.438H6.783l-.54,1.621-1.528-.764L2.176,25.834l.764,1.528L1.32,27.9v3.591l1.621.54-.764,1.528L4.716,36.1l1.528-.764.54,1.621h3.591l.54-1.621,1.528.764,2.539-2.539-.764-1.528,1.138-.379,3.831,4.378c.3.343.75.819,1.174,1.246a15.626,15.626,0,0,0,1.368,1.251l.64.64,1.7-.822a10.586,10.586,0,0,0,1.9.784l.625,1.785h4.9l.623-1.786a10.542,10.542,0,0,0,1.9-.784l1.7.822L39.168,35.7,38.345,34a10.589,10.589,0,0,0,.784-1.9ZM19.728,24.07a10.589,10.589,0,0,0-.784,1.9l-1.786.623v4.9l1.786.623a10.542,10.542,0,0,0,.784,1.9l-.2.414L6.054,19.02A9.9,9.9,0,0,0,19.019,6.052L34.426,19.524l-.422.2a10.579,10.579,0,0,0-1.9-.784l-.624-1.786h-4.9l-.623,1.786a10.542,10.542,0,0,0-1.9.784l-1.7-.822-3.463,3.463ZM23.757,7.735l1.515-.5.111-.292c.033-.085.066-.168.1-.25l.128-.285L24.9,4.976l1.194-1.194L27.52,4.5l.285-.128c.082-.036.164-.069.25-.1l.292-.111.5-1.515h1.688l.5,1.515.292.111c.085.033.168.066.25.1l.285.128L33.3,3.782l1.194,1.194L33.781,6.4l.128.285c.036.082.069.164.1.25l.111.292,1.514.5V9.424l-1.515.5-.111.292c-.033.085-.066.168-.1.25l-.128.285.713,1.427L33.3,13.377l-1.427-.713-.285.128c-.082.036-.164.069-.25.1L31.045,13l-.467,1.4L23.757,8.441ZM9.9,1.32A8.579,8.579,0,1,1,1.32,9.9,8.589,8.589,0,0,1,9.9,1.32ZM13,31.046l-.111.292c-.033.085-.066.168-.1.25l-.128.285.713,1.427-1.194,1.194-1.427-.713-.285.128c-.082.036-.164.069-.25.1l-.292.111-.5,1.515H7.734l-.5-1.515-.292-.111c-.085-.033-.168-.066-.25-.1L6.4,33.781l-1.426.713L3.782,33.3,4.5,31.873l-.128-.285c-.036-.082-.069-.164-.1-.25l-.111-.292-1.515-.5V28.852l1.515-.5.111-.292c.033-.085.066-.168.1-.25L4.5,27.52l-.713-1.426L4.976,24.9l1.427.713.285-.128c.082-.036.164-.069.25-.1l.292-.111.5-1.515h.711l5.967,6.819Zm25.039.044-.091.337a9.184,9.184,0,0,1-.92,2.225l-.176.3.715,1.479-2.137,2.137-1.479-.715-.3.176a9.246,9.246,0,0,1-2.225.92l-.337.091L30.548,39.6H27.525l-.542-1.553-.337-.091a9.184,9.184,0,0,1-2.225-.92l-.3-.176-1.479.715L20.5,35.434l.715-1.479-.176-.3a9.245,9.245,0,0,1-.92-2.225l-.091-.337-1.553-.542V27.526l1.553-.542.091-.337a9.183,9.183,0,0,1,.92-2.225l.176-.3L20.5,22.64,22.639,20.5l1.479.715.3-.176a9.246,9.246,0,0,1,2.225-.92l.337-.091.542-1.553h3.023l.542,1.553.337.091a9.184,9.184,0,0,1,2.225.92l.3.176,1.479-.715,2.137,2.137-.715,1.479.176.3a9.245,9.245,0,0,1,.92,2.225l.091.337,1.553.542v3.023Zm0,0"/>
    <path id="Path_39" data-name="Path 39" d="M278.6,272a6.6,6.6,0,1,0,6.6,6.6A6.607,6.607,0,0,0,278.6,272Zm0,11.879a5.279,5.279,0,1,1,5.279-5.279A5.285,5.285,0,0,1,278.6,283.879Zm0,0" transform="translate(-249.563 -249.562)"/>
    <path id="Path_40" data-name="Path 40" d="M307.96,304a3.96,3.96,0,1,0,3.96,3.96A3.963,3.963,0,0,0,307.96,304Zm0,6.6a2.64,2.64,0,1,1,2.64-2.64A2.642,2.642,0,0,1,307.96,310.6Zm0,0" transform="translate(-278.923 -278.923)"/>
    <path id="Path_41" data-name="Path 41" d="M326.6,67.3a3.3,3.3,0,1,0-3.3,3.3A3.3,3.3,0,0,0,326.6,67.3Zm-5.279,0a1.98,1.98,0,1,1,1.98,1.98A1.982,1.982,0,0,1,321.32,67.3Zm0,0" transform="translate(-293.603 -58.72)"/>
    <path id="Path_42" data-name="Path 42" d="M64,323.3a3.3,3.3,0,1,0,3.3-3.3A3.3,3.3,0,0,0,64,323.3Zm5.279,0a1.98,1.98,0,1,1-1.98-1.98A1.982,1.982,0,0,1,69.279,323.3Zm0,0" transform="translate(-58.721 -293.603)"/>
  </g>
</svg>
