<svg xmlns="http://www.w3.org/2000/svg" width="56.022" height="46.411" viewBox="0 0 56.022 46.411">
  <g id="pavilion" transform="translate(0 0)">
    <path id="Path_43" data-name="Path 43" d="M51.353,23.068a1.682,1.682,0,0,0-.052-.308L44.959,4.639,48.278,1.32,46.958,0,43.883,3.074,40.809,0l-1.32,1.32,2.8,2.795L28.011,10.831,13.737,4.115l2.8-2.8L15.212,0,12.138,3.074,9.063,0,7.743,1.32l3.319,3.319L4.72,22.76a1.682,1.682,0,0,0-.052.308V44.543H0v1.867H15.872V44.543h-5.6v-11.2H23.342v11.2H21.475v1.867H43.883V44.543h-11.2v-11.2H45.751V45.477a.934.934,0,0,0,.934.934h9.337V44.543H51.353Zm-22.409,2.8V24H49.486V25.87Zm-22.409,0V24H27.077V25.87Zm2.017-8.4L9.206,15.6h5.733V13.731H9.859l.653-1.867h2.559V10H11.166L12.481,6.24,25.992,22.135H6.918l.98-2.8h8.908V17.466Zm36.957-5.6.653,1.867h-5.08V15.6h5.734l.653,1.867H39.215v1.867h8.908l.98,2.8H30.029L43.541,6.24,44.855,10H42.95v1.867ZM28.944,20.528V12.457L40.379,7.075Zm-1.867-8.071v8.071L15.642,7.075ZM6.535,44.544V27.737H8.4V44.544ZM10.27,31.472V27.737h1.867V29.6H14V27.737h1.867V29.6H17.74V27.737h1.867V29.6h1.867V27.737h1.867v3.735Zm14.939-3.735h1.867V44.544H25.209Zm3.735,16.807V27.737h1.867V44.544Zm3.735-13.072V27.737h1.867V29.6h1.867V27.737h1.867V29.6h1.867V27.737h1.867V29.6h1.867V27.737h1.867v3.735ZM47.618,44.544V27.737h1.867V44.544Zm0,0"/>
    <path id="Path_44" data-name="Path 44" d="M152,381.656h1.867v1.867H152Zm0,0" transform="translate(-134.26 -337.113)"/>
  </g>
</svg>
