<svg xmlns="http://www.w3.org/2000/svg" width="43.998" height="39.471" viewBox="0 0 43.998 39.471">
  <g id="roadshow" transform="translate(0.001 -26.344)">
    <path id="Path_11" data-name="Path 11" d="M76.587,280.105a.644.644,0,0,0,1.073-.714,3.449,3.449,0,0,0-5.909,0,.644.644,0,1,0,1.073.714,2.164,2.164,0,0,1,3.762,0Z" transform="translate(-65.487 -229.776)"/>
    <path id="Path_12" data-name="Path 12" d="M114.117,358.111h-9.671a.644.644,0,0,0-.569.947c1.283,2.412,3.253,3.8,5.4,3.8s4.121-1.384,5.4-3.8a.644.644,0,0,0-.569-.947Zm-4.836,3.454A4.632,4.632,0,0,1,105.6,359.4h7.358A4.632,4.632,0,0,1,109.281,361.565Z" transform="translate(-94.882 -303.257)"/>
    <path id="Path_13" data-name="Path 13" d="M195.289,277.722a3.543,3.543,0,0,0-2.954,1.669.644.644,0,1,0,1.073.714,2.164,2.164,0,0,1,3.762,0,.644.644,0,1,0,1.073-.714A3.543,3.543,0,0,0,195.289,277.722Z" transform="translate(-175.708 -229.776)"/>
    <path id="Path_14" data-name="Path 14" d="M43.1,26.689a2.035,2.035,0,0,0-2.019-.142c-2.7,1.287-7,2.055-11.487,2.055s-8.786-.769-11.488-2.056a2.035,2.035,0,0,0-2.019.141,1.984,1.984,0,0,0-.891,1.761A44.938,44.938,0,0,0,17.123,39.8a.645.645,0,1,0,1.229-.388,43.658,43.658,0,0,1-1.865-11.026.7.7,0,0,1,.317-.626.757.757,0,0,1,.751-.051c2.909,1.386,7.3,2.181,12.042,2.181s9.132-.795,12.041-2.181a.757.757,0,0,1,.751.051.7.7,0,0,1,.318.629c-.314,6.561-1.857,12.5-4.344,16.72-2.389,4.056-5.5,6.289-8.767,6.289a7.363,7.363,0,0,1-2.195-.339,45.952,45.952,0,0,0,1.3-7.931,3.66,3.66,0,0,1,.9-.113,4.632,4.632,0,0,1,3.679,2.165H30.7a.645.645,0,1,0,0,1.289h3.735A.645.645,0,0,0,35,45.525c-1.283-2.412-3.253-3.8-5.4-3.8a4.921,4.921,0,0,0-.812.068c0-.073.008-.145.012-.218a1.987,1.987,0,0,0-.892-1.764,2.035,2.035,0,0,0-2.019-.141c-2.7,1.287-7,2.055-11.487,2.055s-8.785-.768-11.487-2.055a2.036,2.036,0,0,0-2.019.141A1.987,1.987,0,0,0,0,41.579c.324,6.766,1.93,12.915,4.521,17.312,2.631,4.465,6.138,6.924,9.877,6.924s7.247-2.459,9.877-6.924A29.488,29.488,0,0,0,27.058,52.3a8.644,8.644,0,0,0,2.54.386c3.739,0,7.247-2.459,9.877-6.924,2.591-4.4,4.2-10.546,4.521-17.312a1.987,1.987,0,0,0-.892-1.764ZM23.166,58.236c-2.39,4.056-5.5,6.289-8.767,6.289s-6.377-2.234-8.767-6.289C3.146,54.016,1.6,48.078,1.289,41.517a.7.7,0,0,1,.318-.629.753.753,0,0,1,.418-.127.772.772,0,0,1,.333.076c2.909,1.386,7.3,2.181,12.041,2.181s9.132-.795,12.041-2.181a.757.757,0,0,1,.751.051.7.7,0,0,1,.318.629c-.314,6.561-1.857,12.5-4.344,16.719Z" transform="translate(0 0)"/>
    <path id="Path_15" data-name="Path 15" d="M372.145,135.692a3.543,3.543,0,0,0,2.955-1.669.644.644,0,0,0-1.073-.714,2.164,2.164,0,0,1-3.762,0,.645.645,0,0,0-1.073.714A3.543,3.543,0,0,0,372.145,135.692Z" transform="translate(-337.366 -97.51)"/>
    <path id="Path_16" data-name="Path 16" d="M251.562,135.692a3.543,3.543,0,0,0,2.955-1.669.644.644,0,0,0-1.073-.714,2.164,2.164,0,0,1-3.762,0,.644.644,0,0,0-1.073.714A3.543,3.543,0,0,0,251.562,135.692Z" transform="translate(-227.145 -97.51)"/>
  </g>
</svg>
