<svg xmlns="http://www.w3.org/2000/svg" width="49.259" height="49.259" viewBox="0 0 49.259 49.259">
  <g id="standdesign" transform="translate(-1 -1)">
    <path id="Path_29" data-name="Path 29" d="M48.67,38.13a3.976,3.976,0,1,0-4.9-.108A22.161,22.161,0,0,1,26.629,46.1H25.3a22.187,22.187,0,0,1-17.09-8l-.344-.413a3.974,3.974,0,1,0-5.276.452V54.835H1v1.589H50.259V54.835H48.67ZM47.081,54.835H45.492V38.865a3.973,3.973,0,0,0,1.589,0Zm-.795-22.246A2.384,2.384,0,1,1,43.9,34.973,2.386,2.386,0,0,1,46.287,32.589ZM25.3,47.685h1.331A23.732,23.732,0,0,0,43.9,40.262V54.835H7.356V39.527A23.764,23.764,0,0,0,25.3,47.685ZM4.973,32.589a2.384,2.384,0,1,1-2.384,2.384A2.386,2.386,0,0,1,4.973,32.589Zm-.795,6.276a3.973,3.973,0,0,0,1.589,0v15.97H4.178Z" transform="translate(0 -6.165)"/>
    <path id="Path_30" data-name="Path 30" d="M11.795,26.424h31.78a.794.794,0,0,0,.795-.795V1.795A.794.794,0,0,0,43.575,1H11.795A.794.794,0,0,0,11,1.795V25.63A.794.794,0,0,0,11.795,26.424Zm.795-23.835H42.78V24.835H12.589Z" transform="translate(-2.055)"/>
    <path id="Path_31" data-name="Path 31" d="M33.041,10.233a.794.794,0,0,0-1.123,0l-3.411,3.411L25.1,10.233a.794.794,0,0,0-1.123,0L17.055,17.15H15v1.589H42.013V17.15H39.959Zm-.562,1.685,5.233,5.233h-5.7L29.63,14.767Zm-7.945,0,5.233,5.233H19.3Z" transform="translate(-2.877 -1.849)"/>
    <path id="Path_32" data-name="Path 32" d="M31.384,9.767A2.384,2.384,0,1,0,29,7.384,2.386,2.386,0,0,0,31.384,9.767Zm0-3.178a.795.795,0,1,1-.795.795A.8.8,0,0,1,31.384,6.589Z" transform="translate(-5.754 -0.822)"/>
    <path id="Path_33" data-name="Path 33" d="M21,23H38.479v1.589H21Z" transform="translate(-4.11 -4.521)"/>
    <path id="Path_34" data-name="Path 34" d="M27,27h7.945v1.589H27Z" transform="translate(-5.343 -5.343)"/>
  </g>
</svg>
