<svg xmlns="http://www.w3.org/2000/svg" width="30.323" height="24.638" viewBox="0 0 30.323 24.638">
  <g id="twitter" transform="translate(0 -48)">
    <g id="Group_12" data-name="Group 12" transform="translate(0 48)">
      <path id="Path_60" data-name="Path 60" d="M30.323,50.917a12.961,12.961,0,0,1-3.582.982,6.182,6.182,0,0,0,2.735-3.436,12.423,12.423,0,0,1-3.942,1.5,6.216,6.216,0,0,0-10.753,4.251,6.4,6.4,0,0,0,.144,1.418,17.6,17.6,0,0,1-12.814-6.5,6.218,6.218,0,0,0,1.91,8.309,6.139,6.139,0,0,1-2.809-.766v.068a6.245,6.245,0,0,0,4.981,6.108,6.2,6.2,0,0,1-1.63.2,5.5,5.5,0,0,1-1.177-.106A6.276,6.276,0,0,0,9.2,67.282a12.491,12.491,0,0,1-7.708,2.651A11.644,11.644,0,0,1,0,69.848a17.5,17.5,0,0,0,9.537,2.79c11.439,0,17.694-9.476,17.694-17.69,0-.275-.009-.54-.023-.8A12.4,12.4,0,0,0,30.323,50.917Z" transform="translate(0 -48)" fill="#9a9a9a"/>
    </g>
  </g>
</svg>
